:SAMPLES-PER-SECOND 30
:FULLY-SPECIFIED
:DEGREES
682
root  -81.0314 40.3943 3.55985 42.474 84.6899 42.722
RightUpLeg  2.85806 -10.8671 -5.90528
RightLeg  14.0518 0.279746 0.574538
RightFoot  -15.2821 -0.108347 -0.14175
RightToes  -3.31784e-009 0 -3.6325e-017
Spine  10.3632 2.03452 10.2942
Spine1  2.1242 4.06336 -5.90969
HEad  -4.95542 -12.0851 -7.8291
LeftShoulder1  -0.84408 5.58938 -34.302
LeftArm  0.465026 18.0947 -40.7866
LeftForeArm  28.1015 -14.9627 -6.53863
LeftHand  -0.129104 9.04555 -2.4322
RightShoulder  -1.43668 -7.25619 31.7901
RightArm  21.466 4.52671 44.4505
RightForeArm  10.0038 15.1749 6.47034
RightHand  -0.136144 4.3479 -1.90504
LeftUpLeg  -21.8941 8.88205 -1.46652
LeftLeg  20.744 0.860426 0.714246
LeftFoot  -1.57471 0.39638 -4.52728
LeftToes  1.28511e-009 -3.60458e-011 6.16399e-011
683
root  -80.4987 40.3753 3.58605 41.8919 84.6897 42.1298
RightUpLeg  4.04995 -10.4348 -5.78887
RightLeg  13.3992 -0.13953 0.147181
RightFoot  -15.5883 -0.107543 -0.0571398
RightToes  -3.31784e-009 0 -3.6325e-017
Spine  10.5126 2.14322 10.5362
Spine1  1.51898 4.29336 -6.73837
HEad  -4.92344 -11.615 -7.25938
LeftShoulder1  -0.717788 5.27581 -34.3309
LeftArm  -4.12941 19.7016 -40.3812
LeftForeArm  31.9713 -11.2909 -7.27774
LeftHand  -0.136567 9.29811 -2.38201
RightShoulder  -1.32636 -6.9917 31.5266
RightArm  24.3006 5.38984 45.4781
RightForeArm  7.56729 17.3196 5.90651
RightHand  -0.144279 4.06894 -2.04058
LeftUpLeg  -21.3554 8.77355 -1.87737
LeftLeg  15.0961 1.5431 0.656149
LeftFoot  -1.11521 0.442207 -4.8641
LeftToes  1.28511e-009 -3.60458e-011 6.16399e-011
684
root  -79.9045 40.3452 3.61373 42.8107 84.7429 43.0666
RightUpLeg  5.54867 -10.2652 -5.93727
RightLeg  12.4444 -0.390154 0.0031879
RightFoot  -15.9245 -0.102652 0.127926
RightToes  -3.31784e-009 0 -3.6325e-017
Spine  10.4069 2.17502 10.0051
Spine1  1.61451 4.34024 -7.07354
HEad  -5.38915 -10.5842 -6.58182
LeftShoulder1  -0.744512 5.34849 -34.1855
LeftArm  -6.23245 21.2203 -40.011
LeftForeArm  34.307 -9.36238 -7.14568
LeftHand  -0.184877 9.41979 -3.68567
RightShoulder  -1.32202 -6.96798 31.6564
RightArm  26.1829 6.77283 46.5983
RightForeArm  6.16842 18.7071 5.53235
RightHand  -0.179553 4.51643 -2.38794
LeftUpLeg  -20.2505 6.83873 -1.48351
LeftLeg  9.30348 3.84569 -0.183796
LeftFoot  -0.476125 0.484578 -5.07417
LeftToes  1.28511e-009 -3.60458e-011 6.16399e-011
685
root  -79.2333 40.2888 3.62794 42.0085 84.6632 42.372
RightUpLeg  7.23881 -10.396 -6.36157
RightLeg  11.5874 -0.0477102 0.185139
RightFoot  -16.3449 -0.102363 0.193821
RightToes  -3.31784e-009 0 -3.6325e-017
Spine  9.97962 2.5509 9.20887
Spine1  2.21585 4.6555 -6.89705
HEad  -5.49033 -9.95061 -6.16931
LeftShoulder1  -0.732388 5.3115 -34.3411
LeftArm  -7.00624 22.2782 -39.2725
LeftForeArm  35.9291 -8.29025 -6.98089
LeftHand  -0.182698 8.80444 -4.30736
RightShoulder  -1.32979 -6.99592 31.5733
RightArm  27.4536 7.66282 47.4149
RightForeArm  4.73795 20.1324 5.13379
RightHand  -0.236798 4.69626 -3.02454
LeftUpLeg  -18.5807 3.86646 -0.671578
LeftLeg  3.57545 8.94859 -1.35594
LeftFoot  0.428975 0.502829 -4.8965
LeftToes  1.28511e-009 -3.60458e-011 6.16399e-011
686
root  -78.4629 40.1766 3.59487 41.1309 84.707 41.6997
RightUpLeg  9.18771 -10.6389 -6.90665
RightLeg  10.8355 0.368468 0.425488
RightFoot  -16.9928 -0.0923672 0.442333
RightToes  -3.31784e-009 0 -3.6325e-017
Spine  9.63278 2.58551 8.86217
Spine1  2.63428 4.80392 -7.47363
HEad  -7.52192 -7.00183 -5.07506
LeftShoulder1  -0.771516 5.41718 -34.1209
LeftArm  -6.44258 23.4315 -38.3704
LeftForeArm  36.042 -8.34513 -7.13635
LeftHand  -0.214981 9.42763 -4.4626
RightShoulder  -1.29897 -6.92545 31.4352
RightArm  28.2007 8.2125 48.5256
RightForeArm  4.3863 20.7783 5.00752
RightHand  -0.296381 4.47698 -3.776
LeftUpLeg  -16.8991 2.79785 -0.875823
LeftLeg  -0.626522 13.8851 -2.00173
LeftFoot  0.687141 0.581266 -5.54095
LeftToes  1.28511e-009 -3.60458e-011 6.16399e-011
687
root  -77.6315 39.9934 3.50734 41.8675 84.7429 42.5613
RightUpLeg  10.7243 -10.5516 -7.38944
RightLeg  10.9085 0.367016 0.176159
RightFoot  -18.1854 -0.0462259 1.28974
RightToes  -3.31784e-009 0 -3.6325e-017
Spine  9.7785 2.7906 8.66784
Spine1  2.15398 5.20129 -8.35806
HEad  -11.6024 0.708523 -5.3559
LeftShoulder1  -0.627624 5.07597 -33.7557
LeftArm  -6.48907 24.3712 -37.5939
LeftForeArm  36.6957 -8.06965 -7.08016
LeftHand  -0.197132 9.18998 -4.35588
RightShoulder  -1.44561 -7.24374 32.1562
RightArm  29.1861 8.09681 48.3228
RightForeArm  4.39826 21.6301 4.83456
RightHand  -0.2759 5.43517 -3.26715
LeftUpLeg  -15.6063 2.66167 -1.69347
LeftLeg  -2.59715 18.0248 -2.51685
LeftFoot  1.37661 0.455312 -4.17382
LeftToes  1.28511e-009 -3.60458e-011 6.16399e-011
688
root  -76.7362 39.823 3.39453 46.483 84.6261 47.3279
RightUpLeg  12.4306 -10.5642 -8.37503
RightLeg  10.9458 0.460114 -0.0203664
RightFoot  -19.193 0.0232561 2.22933
RightToes  -3.31784e-009 0 -3.6325e-017
Spine  8.98148 2.80677 7.47443
Spine1  3.24686 5.28713 -8.43891
HEad  -11.8711 0.893325 -5.11104
LeftShoulder1  -0.736731 5.32319 -34.3214
LeftArm  -6.08272 24.2511 -36.3751
LeftForeArm  36.6652 -8.35939 -7.06388
LeftHand  -0.148662 7.82505 -4.83423
RightShoulder  -1.33365 -7.00685 31.5717
RightArm  29.6381 7.9875 49.0193
RightForeArm  4.27843 21.6491 4.84725
RightHand  -0.211678 5.61083 -2.55187
LeftUpLeg  -15.0273 2.22711 -2.91709
LeftLeg  -1.90511 20.2514 -2.14176
LeftFoot  4.60174 0.0516868 -0.683162
LeftToes  1.28511e-009 -3.60458e-011 6.16399e-011
689
root  -75.7746 39.6652 3.24468 53.3116 84.2495 54.4136
RightUpLeg  14.1669 -10.3541 -9.74571
RightLeg  11.3274 0.605549 -0.297214
RightFoot  -19.9799 0.162616 3.94035
RightToes  -3.31784e-009 0 -3.6325e-017
Spine  8.58205 2.98094 5.72921
Spine1  3.71207 5.4011 -8.32751
HEad  -12.1883 0.833626 -5.35401
LeftShoulder1  -0.775004 5.40492 -34.5821
LeftArm  -5.10817 24.1792 -35.4669
LeftForeArm  34.1527 -9.40273 -7.22869
LeftHand  -0.250881 10.4777 -4.14983
RightShoulder  -1.36369 -7.07155 31.7243
RightArm  30.4448 7.55827 48.8466
RightForeArm  4.86019 21.6239 4.8539
RightHand  -0.153592 5.86807 -1.90743
LeftUpLeg  -14.8087 1.79082 -4.17676
LeftLeg  -0.0935615 20.6062 -1.39826
LeftFoot  9.65477 -0.649352 3.21412
LeftToes  1.28511e-009 -3.60458e-011 6.16399e-011
690
root  -74.8125 39.5243 3.07773 66.8507 83.5464 68.7979
RightUpLeg  16.0029 -9.77783 -11.7291
RightLeg  13.0325 0.330466 -0.556935
RightFoot  -20.6123 0.374148 6.32234
RightToes  -3.31784e-009 0 -3.6325e-017
Spine  9.33459 2.76418 3.69938
Spine1  3.37039 5.09048 -8.69344
HEad  -13.0694 0.364533 -5.29073
LeftShoulder1  -0.856741 5.60076 -34.6668
LeftArm  -5.42802 22.4464 -34.8464
LeftForeArm  33.6338 -8.71384 -7.25301
LeftHand  -0.186287 9.92785 -3.2231
RightShoulder  -1.36093 -7.03091 32.0779
RightArm  30.7166 7.13627 49.0292
RightForeArm  5.53722 19.9244 5.32359
RightHand  -0.192869 5.8981 -2.3218
LeftUpLeg  -14.6591 1.8444 -5.77126
LeftLeg  3.84551 18.8553 -1.07372
LeftFoot  10.8412 -1.23961 6.01108
LeftToes  1.28511e-009 -3.60458e-011 6.16399e-011
691
root  -73.8698 39.4265 2.88963 83.5386 82.3073 86.4133
RightUpLeg  17.3717 -9.0036 -14.0964
RightLeg  16.096 -0.431482 -0.547127
RightFoot  -20.7141 0.677835 9.96382
RightToes  -3.31784e-009 0 -3.6325e-017
Spine  10.3257 2.76983 1.08534
Spine1  2.95511 4.72814 -8.40833
HEad  -12.8941 -0.420924 -6.05312
LeftShoulder1  -0.810501 5.47768 -34.866
LeftArm  -6.45775 19.8801 -34.9811
LeftForeArm  33.5747 -8.23158 -6.97845
LeftHand  -0.190004 10.1532 -3.14297
RightShoulder  -1.40538 -7.15773 31.9642
RightArm  27.7536 5.83186 49.2004
RightForeArm  8.48517 17.4607 6.14913
RightHand  -0.232535 4.939 -2.88579
LeftUpLeg  -14.0691 1.21264 -8.00488
LeftLeg  7.70989 17.9174 -0.407233
LeftFoot  8.48759 -1.18452 6.46644
LeftToes  1.28511e-009 -3.60458e-011 6.16399e-011
692
root  -72.9956 39.384 2.64825 90.4105 81.2954 93.6859
RightUpLeg  16.7669 -7.6336 -15.4964
RightLeg  21.0807 -1.06852 -0.63323
RightFoot  -19.591 0.960153 15.2155
RightToes  -3.31784e-009 0 -3.6325e-017
Spine  10.6073 2.94901 0.704216
Spine1  2.85714 5.03601 -10.1977
HEad  -12.4448 -1.27333 -6.97713
LeftShoulder1  -0.673171 5.16125 -34.4433
LeftArm  -7.22615 17.3057 -35.7996
LeftForeArm  32.2087 -8.47497 -6.72164
LeftHand  -0.155314 10.7455 -1.98239
RightShoulder  -1.33325 -6.97575 31.8897
RightArm  22.8147 4.42288 49.2064
RightForeArm  13.6049 13.6407 7.36644
RightHand  -0.0942555 3.9132 -1.44585
LeftUpLeg  -13.2754 1.39013 -9.57411
LeftLeg  9.9753 16.9405 -0.216702
LeftFoot  6.09232 -1.07008 6.7349
LeftToes  1.28511e-009 -3.60458e-011 6.16399e-011
693
root  -72.1801 39.3812 2.37798 88.171 81.1346 91.6724
RightUpLeg  14.2989 -5.95515 -16.1713
RightLeg  28.0164 -0.623007 -0.595994
RightFoot  -16.3721 0.765966 19.9723
RightToes  -3.31784e-009 0 -3.6325e-017
Spine  11.0141 3.3418 1.8018
Spine1  2.64857 5.79991 -12.8328
HEad  -11.2157 -1.5303 -7.8984
LeftShoulder1  -0.66271 5.17222 -33.5613
LeftArm  -7.12355 15.3875 -37.3856
LeftForeArm  29.8075 -10.3276 -6.46608
LeftHand  -0.0996324 10.4116 -0.969605
RightShoulder  -1.26239 -6.82029 31.5518
RightArm  19.6927 4.23687 49.7124
RightForeArm  18.145 9.09913 8.77895
RightHand  -0.0515825 3.07156 -0.977026
LeftUpLeg  -12.5638 1.83159 -10.1102
LeftLeg  11.851 16.8811 0.151425
LeftFoot  4.01841 -1.00897 7.28538
LeftToes  1.28511e-009 -3.60458e-011 6.16399e-011
